Coordinates
version=1
nRows=13
nColumns=36
inDegrees=yes

Units are S.I. units (second, meters, Newtons, ...)
If the header above contains a line with 'inDegrees', this indicates whether rotational values are in degrees (yes) or radians (no).

endheader
time	pelvis_tilt	pelvis_list	pelvis_rotation	pelvis_tx	pelvis_ty	pelvis_tz	hip_flexion_r	hip_adduction_r	hip_rotation_r	knee_angle_r	knee_angle_r_beta	ankle_angle_r	subtalar_angle_r	mtp_angle_r	hip_flexion_l	hip_adduction_l	hip_rotation_l	knee_angle_l	knee_angle_l_beta	ankle_angle_l	subtalar_angle_l	mtp_angle_l	lumbar_extension	lumbar_bending	lumbar_rotation	arm_flex_r	arm_add_r	arm_rot_r	elbow_flex_r	pro_sup_r	arm_flex_l	arm_add_l	arm_rot_l	elbow_flex_l	pro_sup_l
      1.71666670	    -17.90410892	     -0.77100247	      5.06344207	     -0.08990334	      1.25502135	     -0.09357250	     28.77583022	     -1.45811610	     -5.34233128	     19.58857444	      0.34188512	      6.18769913	    -10.31522366	     -7.49999987	     23.26942777	      0.83468442	     -4.18521716	     11.87122820	      0.20719202	      8.92873480	     -2.92855189	     -7.49999987	     -7.97454598	     -1.61163604	     -2.80861799	    -13.64552627	    -39.86630853	     48.79223914	     71.11748245	     88.40426856	    -21.54363554	    -41.27161396	     40.96328677	     73.44328342	     88.28070560
      1.73333330	    -18.18980691	     -0.82684608	      5.11378616	     -0.08923897	      1.25720290	     -0.09383505	     29.64254901	     -1.52706353	     -5.55484290	     20.42398836	      0.35646584	      6.70857981	     -9.78925148	     -7.49999987	     23.94492020	      0.81923490	     -4.16272746	     12.21763302	      0.21323792	      8.99294935	     -3.09915523	     -7.49999987	     -8.94500007	     -1.54080748	     -2.81458261	    -13.44998910	    -39.61406871	     47.78122705	     69.77603425	     88.45926049	    -21.04214507	    -40.95619249	     40.18703837	     72.62125309	     88.22199831
      1.75000000	    -18.37981214	     -0.94441274	      5.21802812	     -0.08940375	      1.25981274	     -0.09429585	     29.95358955	     -1.50742279	     -5.86158157	     20.36265524	      0.35539538	      7.04015509	     -8.99981501	     -7.49999987	     24.20539591	      0.79864821	     -4.06055003	     12.00468031	      0.20952120	      8.60352313	     -3.14065123	     -7.49999987	     -9.89867956	     -1.28051167	     -2.30909125	    -14.56572150	    -38.83405374	     44.21509337	     68.36250733	     89.83180016	    -19.75560607	    -40.70850439	     39.84324758	     71.53086479	     89.27510916
      1.76666670	    -18.63702395	     -1.04453303	      5.32456377	     -0.08887696	      1.25647107	     -0.09454369	     30.26199999	     -1.52348646	     -6.23360296	     20.34409406	      0.35507142	      7.36147768	     -8.33413679	     -7.49999987	     24.48543194	      0.80243724	     -3.97234621	     11.81556980	      0.20622060	      8.29175952	     -3.08296337	     -7.49999987	    -10.61869310	     -1.12430440	     -2.22672821	    -14.18812950	    -38.21364937	     43.15683797	     66.26083535	     89.91021706	    -19.13849735	    -40.17512042	     39.25379980	     70.00821920	     88.90292247
      1.78333330	    -18.82203997	     -1.11277661	      5.34849462	     -0.08911231	      1.25639874	     -0.09488773	     30.43802732	     -1.52130250	     -6.51800490	     20.26324616	      0.35366036	      7.51573399	     -7.90162501	     -7.49999987	     24.62321168	      0.80922719	     -3.91941571	     11.55271493	      0.20163291	      8.04428303	     -2.88467234	     -7.49999987	    -11.35414510	     -1.01625843	     -2.08621953	    -14.17223954	    -37.28474862	     41.00690151	     64.14889408	     90.56345568	    -18.76219852	    -39.42402278	     37.92292819	     68.51780827	     89.21362132
      1.80000000	    -18.79217320	     -1.22666685	      5.34882805	     -0.08878844	      1.25613607	     -0.09504216	     30.17917247	     -1.41128988	     -6.78517105	     19.82677756	      0.34604255	      7.62328425	     -7.41558180	     -7.49999987	     24.41832627	      0.74819076	     -3.81999491	     11.16659303	      0.19489381	      7.93727457	     -2.70786033	     -7.49999987	    -12.16136963	     -0.85181627	     -1.96452910	    -13.51184447	    -36.52315243	     40.18681553	     61.55076111	     89.00538199	    -18.18880964	    -38.74475550	     37.39601797	     66.54108022	     87.70327998
      1.81666670	    -18.99648916	     -1.32183169	      5.43650807	     -0.08893823	      1.25375246	     -0.09553968	     30.20430200	     -1.36555219	     -6.96770817	     19.49028160	      0.34016959	      7.75456009	     -6.91224880	     -7.49999987	     24.52293069	      0.75223618	     -3.67149253	     10.84549362	      0.18928957	      7.71934827	     -2.41261154	     -7.49999987	    -12.73971191	     -0.72461499	     -1.91466122	    -13.20935410	    -35.72438712	     39.31192853	     59.12219641	     88.16650491	    -17.81766286	    -38.08926964	     36.70362873	     64.68325497	     86.95834392
      1.83333330	    -19.09426552	     -1.40551845	      5.48432869	     -0.08866638	      1.25596648	     -0.09568490	     29.93291443	     -1.30989903	     -7.24598319	     18.83859290	      0.32879547	      7.73714570	     -6.48625196	     -7.49999987	     24.41181383	      0.73260497	     -3.57469556	     10.39007925	      0.18134109	      7.41890283	     -2.16263683	     -7.49999987	    -13.37794782	     -0.62072641	     -1.81617626	    -12.94679364	    -34.94411542	     38.28993990	     56.76116151	     87.24100980	    -17.49839232	    -37.39832872	     35.84427579	     62.82622382	     86.15912470
      1.85000000	    -19.13203394	     -1.48164731	      5.56646140	     -0.08291162	      1.25364173	     -0.09388598	     29.42296472	     -1.17937583	     -7.48143223	     17.83937415	      0.31135582	      7.55103237	     -6.33180916	     -7.49999987	     24.04686378	      0.73139279	     -3.44560036	      9.73907871	      0.16997899	      7.07070313	     -1.84847041	     -7.49999987	    -13.91292198	     -0.58385705	     -1.69070587	    -12.99928342	    -34.12245170	     37.50485035	     54.45386558	     87.49785845	    -17.49844483	    -36.86993734	     34.99978440	     61.11769191	     86.53417994
      1.86666670	    -19.16063106	     -1.55640299	      5.66112865	     -0.08284883	      1.25114614	     -0.09417237	     28.92519401	     -1.04462618	     -7.74940360	     16.87577543	      0.29453785	      7.21026444	     -6.35227898	     -7.49999987	     23.68551935	      0.72845037	     -3.29533244	      9.13816880	      0.15949113	      6.69887532	     -1.58069638	     -7.49999987	    -14.53589616	     -0.52488222	     -1.42524467	    -13.62930025	    -33.77563272	     37.35111665	     53.40170101	     85.33188166	    -17.87241007	    -36.76937578	     34.60139247	     60.33494766	     84.50911355
      1.88333330	    -19.13843419	     -1.57570071	      5.67898916	     -0.08320159	      1.25165768	     -0.09445357	     28.56803659	     -0.96251853	     -7.95365603	     16.27074357	      0.28397805	      7.02797338	     -6.49263881	     -7.49999987	     23.41122746	      0.72366865	     -3.04116817	      8.83834245	      0.15425818	      6.93020348	     -1.27462525	     -7.49999987	    -15.14877114	     -0.56171234	     -1.20150401	    -14.31501866	    -33.10820916	     37.46395458	     51.63948863	     84.88387223	    -18.44031213	    -36.47971364	     34.21661065	     58.87899313	     84.20039034
      1.90000000	    -19.60600817	     -1.60218673	      5.75381904	     -0.08976010	      1.25070278	     -0.09113552	     29.00570250	     -0.95039407	     -8.08723112	     16.11896589	      0.28132903	      6.82283583	     -6.65314604	     -7.49999987	     24.11443404	      0.70270034	     -3.01975980	      9.09260695	      0.15869593	      7.15400606	     -0.99695003	     -7.49999987	    -15.52376129	     -0.73842764	     -1.99287976	    -13.69023073	    -32.83324348	     40.09953802	     49.63800303	     87.51739534	    -20.95174603	    -35.75122982	     31.35064831	     57.30183589	     88.88994899
      1.91666670	    -19.88104241	     -1.66211762	      5.85679542	     -0.09014764	      1.25107719	     -0.09165091	     29.35415499	     -0.93588149	     -8.24683813	     16.04200706	      0.27998584	      6.57598504	     -6.84601631	     -7.49999987	     24.59912568	      0.66202624	     -2.89794944	      9.29088878	      0.16215660	      7.33028534	     -0.87624423	     -7.49999987	    -16.20589999	     -0.80353017	     -1.93987345	    -14.81487162	    -32.16645496	     40.37959573	     48.33036762	     87.05612668	    -21.96906698	    -35.33139442	     31.41352093	     55.21142871	     88.61235385
